# xmcd
#
# Track frame offsets:
#	150
#	15937
#	28762
#
# Disc length: 693 seconds
#
# Revision: 1
# Processed by: cddbd v1.5.1PL2 Copyright (c) Steve Scherf et al.
# Submitted via: audiograbber 1.83.01
#
DISCID=1502b303
DTITLE=Levitation - World Around EP
DYEAR=1992
DGENRE=Rock
TTITLE0=World Around
TTITLE1=Jay
TTITLE2=Usher
EXTD=
EXTT0=
EXTT1=
EXTT2=
PLAYORDER=
